<svg width="204" height="36" viewBox="0 0 204 36" fill="none" xmlns="http://www.w3.org/2000/svg">
<circle cx="18" cy="18" r="18" fill="#3A83F2"/>
<path d="M6 18.9658V17.5582L10.4787 13.698H13.1232L8.02607 18.2407L13.1232 22.6554H10.3081L6 18.9658Z" fill="white"/>
<path d="M30 17.3875V18.7951L25.5213 22.6553H22.8768L27.9739 18.1126L22.8768 13.6979H25.6919L30 17.3875Z" fill="white"/>
<path d="M14.8296 27.04L19.3396 9H21.5194L17.0094 27.04H14.8296Z" fill="white"/>
<path d="M50.1515 26.7867V24.0002H52.2241V13.4988H50.1515V10.7122H57.7972V13.4988H55.7246V24.0002H57.7972V26.7867H50.1515ZM60.5295 9.74498H63.9378V16.7229H64.053C64.2218 16.0474 64.6057 15.4947 65.2044 15.0648C65.8185 14.6349 66.5171 14.4199 67.3001 14.4199C68.8354 14.4199 69.9945 14.9573 70.7775 16.032C71.5605 17.1067 71.952 18.6727 71.952 20.73C71.952 22.7873 71.5605 24.361 70.7775 25.451C69.9945 26.5257 68.8354 27.0631 67.3001 27.0631C66.9009 27.0631 66.5248 27.0017 66.1717 26.8789C65.8185 26.7714 65.4961 26.6179 65.2044 26.4183C64.9281 26.2033 64.6901 25.9577 64.4905 25.6813C64.2909 25.3896 64.1451 25.0826 64.053 24.7602H63.9378V26.7867H60.5295V9.74498ZM66.1717 24.2996C66.8165 24.2996 67.3462 24.0769 67.7607 23.6317C68.1906 23.1711 68.4055 22.557 68.4055 21.7894V19.6937C68.4055 18.926 68.1906 18.3196 67.7607 17.8744C67.3462 17.4138 66.8165 17.1835 66.1717 17.1835C65.5268 17.1835 64.9895 17.3447 64.5596 17.6671C64.1451 17.9742 63.9378 18.404 63.9378 18.9567V22.5263C63.9378 23.079 64.1451 23.5166 64.5596 23.839C64.9895 24.146 65.5268 24.2996 66.1717 24.2996ZM74.5405 26.7867V14.6963H77.9489V17.3217H78.064C78.1254 16.9839 78.2329 16.6615 78.3864 16.3544C78.54 16.032 78.7395 15.748 78.9852 15.5023C79.2462 15.2567 79.5533 15.0648 79.9064 14.9266C80.2595 14.7731 80.674 14.6963 81.15 14.6963H81.7487V17.8744H80.8966C79.8987 17.8744 79.1541 18.0049 78.6628 18.2659C78.1868 18.5269 77.9489 19.0105 77.9489 19.7167V26.7867H74.5405ZM92.4718 26.7867C91.8577 26.7867 91.3433 26.5948 90.9288 26.211C90.5296 25.8272 90.2763 25.3129 90.1688 24.668H90.0307C89.8464 25.451 89.4396 26.0498 88.8101 26.4643C88.1806 26.8635 87.4053 27.0631 86.4841 27.0631C85.2713 27.0631 84.3424 26.7407 83.6976 26.0959C83.0528 25.451 82.7303 24.5989 82.7303 23.5396C82.7303 22.2653 83.1909 21.3211 84.1121 20.707C85.0486 20.0775 86.3153 19.7628 87.912 19.7628H89.8234V19.0028C89.8234 18.4194 89.6699 17.9588 89.3628 17.621C89.0558 17.2679 88.5414 17.0914 87.8199 17.0914C87.1443 17.0914 86.607 17.2372 86.2078 17.5289C85.8086 17.8206 85.4785 18.1507 85.2175 18.5192L83.1909 16.7229C83.6822 16.0013 84.2963 15.4409 85.0333 15.0417C85.7856 14.6272 86.7989 14.4199 88.0732 14.4199C89.7927 14.4199 91.0823 14.7961 91.9421 15.5484C92.8019 16.3007 93.2318 17.3984 93.2318 18.8416V24.1384H94.3602V26.7867H92.4718ZM87.7508 24.6911C88.3188 24.6911 88.8024 24.5682 89.2016 24.3226C89.6161 24.0769 89.8234 23.6778 89.8234 23.1251V21.6972H88.1653C86.8296 21.6972 86.1617 22.1502 86.1617 23.056V23.4014C86.1617 23.8467 86.2999 24.1767 86.5763 24.3917C86.8526 24.5913 87.2441 24.6911 87.7508 24.6911ZM96.6479 9.74498H100.056V16.7459H100.194C100.409 16.1164 100.785 15.5714 101.323 15.1108C101.86 14.6502 102.605 14.4199 103.557 14.4199C104.8 14.4199 105.737 14.8345 106.366 15.6635C107.011 16.4926 107.334 17.6748 107.334 19.2101V26.7867H103.925V19.4864C103.925 18.7034 103.802 18.1277 103.557 17.7592C103.311 17.3754 102.873 17.1835 102.244 17.1835C101.968 17.1835 101.699 17.2219 101.438 17.2986C101.177 17.36 100.939 17.4675 100.724 17.621C100.524 17.7746 100.363 17.9665 100.24 18.1968C100.118 18.4117 100.056 18.665 100.056 18.9567V26.7867H96.6479V9.74498ZM112.071 13.4067C111.38 13.4067 110.873 13.2531 110.551 12.9461C110.244 12.6237 110.09 12.2168 110.09 11.7255V11.2189C110.09 10.7276 110.244 10.3284 110.551 10.0213C110.873 9.69892 111.38 9.53771 112.071 9.53771C112.762 9.53771 113.261 9.69892 113.568 10.0213C113.89 10.3284 114.051 10.7276 114.051 11.2189V11.7255C114.051 12.2168 113.89 12.6237 113.568 12.9461C113.261 13.2531 112.762 13.4067 112.071 13.4067ZM110.367 14.6963H113.775V26.7867H110.367V14.6963ZM116.956 26.7867V14.6963H120.364V16.7459H120.503C120.717 16.1011 121.086 15.5561 121.608 15.1108C122.13 14.6502 122.844 14.4199 123.75 14.4199C124.579 14.4199 125.285 14.6272 125.868 15.0417C126.452 15.4563 126.874 16.0627 127.135 16.8611H127.204C127.312 16.5233 127.473 16.2086 127.688 15.9169C127.918 15.6098 128.194 15.3488 128.517 15.1339C128.839 14.9189 129.2 14.75 129.599 14.6272C129.998 14.489 130.428 14.4199 130.889 14.4199C132.056 14.4199 132.946 14.8345 133.56 15.6635C134.19 16.4926 134.504 17.6748 134.504 19.2101V26.7867H131.096V19.4864C131.096 17.9511 130.543 17.1835 129.438 17.1835C128.931 17.1835 128.471 17.3293 128.056 17.621C127.642 17.9127 127.434 18.358 127.434 18.9567V26.7867H124.026V19.4864C124.026 17.9511 123.473 17.1835 122.368 17.1835C122.122 17.1835 121.877 17.2219 121.631 17.2986C121.401 17.36 121.186 17.4675 120.986 17.621C120.802 17.7746 120.648 17.9665 120.526 18.1968C120.418 18.4117 120.364 18.665 120.364 18.9567V26.7867H116.956ZM149.655 27.0631C148.565 27.0631 147.582 26.8942 146.707 26.5564C145.832 26.2033 145.088 25.689 144.473 25.0135C143.859 24.3226 143.383 23.4705 143.046 22.4572C142.708 21.4286 142.539 20.231 142.539 18.8646C142.539 17.5136 142.708 16.316 143.046 15.272C143.383 14.2127 143.859 13.3299 144.473 12.6237C145.088 11.9021 145.832 11.357 146.707 10.9886C147.582 10.6201 148.565 10.4359 149.655 10.4359C151.144 10.4359 152.373 10.7429 153.34 11.357C154.307 11.9558 155.082 12.9077 155.666 14.2127L152.649 15.7787C152.434 15.1032 152.096 14.5658 151.636 14.1666C151.19 13.7521 150.53 13.5448 149.655 13.5448C148.626 13.5448 147.797 13.8826 147.168 14.5581C146.554 15.2183 146.247 16.1855 146.247 17.4598V20.0391C146.247 21.3134 146.554 22.2883 147.168 22.9639C147.797 23.624 148.626 23.9541 149.655 23.9541C150.515 23.9541 151.198 23.7238 151.705 23.2632C152.227 22.7873 152.611 22.2192 152.856 21.5591L155.712 23.2172C155.113 24.4454 154.322 25.3973 153.34 26.0728C152.373 26.733 151.144 27.0631 149.655 27.0631ZM163.021 27.0631C162.099 27.0631 161.278 26.9172 160.556 26.6255C159.835 26.3185 159.221 25.8963 158.714 25.3589C158.223 24.8062 157.847 24.1384 157.586 23.3554C157.34 22.5724 157.217 21.6972 157.217 20.73C157.217 19.7781 157.34 18.9184 157.586 18.1507C157.831 17.3677 158.192 16.6999 158.668 16.1472C159.159 15.5944 159.758 15.1722 160.464 14.8805C161.171 14.5735 161.977 14.4199 162.882 14.4199C163.88 14.4199 164.732 14.5888 165.439 14.9266C166.16 15.2644 166.744 15.7173 167.189 16.2853C167.65 16.8534 167.98 17.5136 168.179 18.2659C168.394 19.0028 168.502 19.7781 168.502 20.5918V21.6051H160.741V21.7894C160.741 22.5877 160.956 23.2249 161.386 23.7008C161.815 24.1614 162.491 24.3917 163.412 24.3917C164.118 24.3917 164.694 24.2535 165.139 23.9772C165.585 23.6854 165.999 23.34 166.383 22.9408L168.087 25.0595C167.55 25.689 166.843 26.1803 165.968 26.5334C165.109 26.8865 164.126 27.0631 163.021 27.0631ZM162.952 16.9302C162.261 16.9302 161.716 17.1604 161.316 17.621C160.933 18.0663 160.741 18.665 160.741 19.4173V19.6016H164.978V19.3943C164.978 18.6574 164.809 18.0663 164.471 17.621C164.149 17.1604 163.642 16.9302 162.952 16.9302ZM175.008 27.0631C173.841 27.0631 172.859 26.8789 172.06 26.5104C171.262 26.1266 170.548 25.5892 169.918 24.8983L171.922 22.8717C172.352 23.3477 172.828 23.7238 173.35 24.0002C173.872 24.2765 174.463 24.4147 175.123 24.4147C175.799 24.4147 176.267 24.3149 176.528 24.1153C176.789 23.9004 176.919 23.6164 176.919 23.2632C176.919 22.6952 176.513 22.3574 175.699 22.2499L174.386 22.0887C171.669 21.751 170.31 20.5074 170.31 18.358C170.31 17.7746 170.417 17.2449 170.632 16.7689C170.863 16.2777 171.177 15.8631 171.577 15.5254C171.991 15.1722 172.482 14.9036 173.05 14.7193C173.634 14.5197 174.286 14.4199 175.008 14.4199C175.637 14.4199 176.19 14.466 176.666 14.5581C177.157 14.6349 177.587 14.7577 177.956 14.9266C178.34 15.0801 178.685 15.2797 178.992 15.5254C179.314 15.7557 179.629 16.0167 179.936 16.3084L177.979 18.3119C177.595 17.9281 177.157 17.6287 176.666 17.4138C176.19 17.1835 175.699 17.0683 175.192 17.0683C174.609 17.0683 174.194 17.1604 173.949 17.3447C173.703 17.5289 173.58 17.7746 173.58 18.0816C173.58 18.404 173.665 18.6574 173.833 18.8416C174.018 19.0105 174.355 19.1333 174.847 19.2101L176.205 19.3943C178.862 19.7474 180.19 20.9603 180.19 23.0329C180.19 23.6164 180.067 24.1537 179.821 24.645C179.575 25.1363 179.222 25.5662 178.762 25.9347C178.317 26.2878 177.771 26.5641 177.127 26.7637C176.497 26.9633 175.791 27.0631 175.008 27.0631ZM191.449 26.7867C190.835 26.7867 190.32 26.5948 189.906 26.211C189.507 25.8272 189.253 25.3129 189.146 24.668H189.008C188.823 25.451 188.417 26.0498 187.787 26.4643C187.158 26.8635 186.382 27.0631 185.461 27.0631C184.248 27.0631 183.319 26.7407 182.675 26.0959C182.03 25.451 181.707 24.5989 181.707 23.5396C181.707 22.2653 182.168 21.3211 183.089 20.707C184.026 20.0775 185.292 19.7628 186.889 19.7628H188.8V19.0028C188.8 18.4194 188.647 17.9588 188.34 17.621C188.033 17.2679 187.518 17.0914 186.797 17.0914C186.121 17.0914 185.584 17.2372 185.185 17.5289C184.786 17.8206 184.456 18.1507 184.195 18.5192L182.168 16.7229C182.659 16.0013 183.273 15.4409 184.01 15.0417C184.763 14.6272 185.776 14.4199 187.05 14.4199C188.77 14.4199 190.059 14.7961 190.919 15.5484C191.779 16.3007 192.209 17.3984 192.209 18.8416V24.1384H193.337V26.7867H191.449ZM186.728 24.6911C187.296 24.6911 187.779 24.5682 188.179 24.3226C188.593 24.0769 188.8 23.6778 188.8 23.1251V21.6972H187.142C185.807 21.6972 185.139 22.1502 185.139 23.056V23.4014C185.139 23.8467 185.277 24.1767 185.553 24.3917C185.83 24.5913 186.221 24.6911 186.728 24.6911ZM195.625 26.7867V14.6963H199.033V17.3217H199.148C199.21 16.9839 199.317 16.6615 199.471 16.3544C199.624 16.032 199.824 15.748 200.07 15.5023C200.331 15.2567 200.638 15.0648 200.991 14.9266C201.344 14.7731 201.758 14.6963 202.234 14.6963H202.833V17.8744H201.981C200.983 17.8744 200.238 18.0049 199.747 18.2659C199.271 18.5269 199.033 19.0105 199.033 19.7167V26.7867H195.625Z" fill="#020633"/>
</svg>
